<svg width="100" height="100" viewBox="0 0 100 100" fill="none" xmlns="http://www.w3.org/2000/svg">
<path d="M27.2365 45.175L37.7647 28.2069C41.6437 21.9107 49.9604 8.28724 52.195 4.1633C55.1353 -1.26295 55.7808 3.2025 56.0827 9.1515C56.2453 12.3548 57.2506 20.4345 57.3253 34.5616C57.3656 42.2041 63.5452 43.9263 70.3405 45.917C76.129 47.6129 73.3357 52.7678 72.6017 54.356C72.0144 55.6266 67.2108 63.3765 64.8823 67.0927C59.1501 76.2819 48.9523 94.3675 45.8273 97.2457C42.7022 100.124 42.8747 95.7177 42.9055 91.5349L42.9068 91.3545C42.9571 84.5499 43.0586 70.7956 41.9642 64.6525C40.5841 56.9052 34.8536 55.4257 29.0226 54.437C24.4798 53.6667 24.3542 48.2665 27.2365 45.175Z" fill="url(#paint0_linear_410_6)"/>
<defs>
<linearGradient id="paint0_linear_410_6" x1="37.8435" y1="6.12091" x2="61.2892" y2="93.6214" gradientUnits="userSpaceOnUse">
<stop stop-color="#00F1A0"/>
<stop offset="1" stop-color="#00B1EC"/>
</linearGradient>
</defs>
</svg>
