<svg width="250" height="350" viewBox="0 0 250 350" fill="none" xmlns="http://www.w3.org/2000/svg">
<path d="M75.3116 109.829L98.8103 71.957C107.468 57.904 126.031 27.4969 131.018 18.2924C137.581 6.18112 139.022 16.1479 139.696 29.4259C140.058 36.5756 142.302 54.6093 142.469 86.1406C142.559 103.198 156.352 107.042 171.518 111.486C184.438 115.271 178.204 126.776 176.565 130.321C175.255 133.157 164.533 150.455 159.336 158.749C146.542 179.259 123.781 219.626 116.806 226.05C109.831 232.474 110.216 222.639 110.284 213.304L110.287 212.901C110.399 197.713 110.626 167.014 108.184 153.303C105.103 136.011 92.3126 132.709 79.298 130.502C69.1587 128.783 68.8784 116.73 75.3116 109.829Z" fill="url(#paint0_linear_401_6)"/>
<path d="M31.1944 251.544C31.1944 253.261 30.9224 254.824 30.3784 256.232C29.8344 257.64 29.0664 258.845 28.0744 259.848C27.0824 260.851 25.8877 261.629 24.4904 262.184C23.1037 262.728 21.5677 263 19.8824 263H11.3224V240.072H19.8824C21.5677 240.072 23.1037 240.349 24.4904 240.904C25.8877 241.448 27.0824 242.227 28.0744 243.24C29.0664 244.243 29.8344 245.448 30.3784 246.856C30.9224 248.264 31.1944 249.827 31.1944 251.544ZM28.0104 251.544C28.0104 250.136 27.8184 248.877 27.4344 247.768C27.0504 246.659 26.5064 245.72 25.8024 244.952C25.0984 244.184 24.245 243.597 23.2424 243.192C22.2397 242.787 21.1197 242.584 19.8824 242.584H14.4264V260.488H19.8824C21.1197 260.488 22.2397 260.285 23.2424 259.88C24.245 259.475 25.0984 258.893 25.8024 258.136C26.5064 257.368 27.0504 256.429 27.4344 255.32C27.8184 254.211 28.0104 252.952 28.0104 251.544ZM48.8844 246.792L39.8444 267.784C39.7484 267.997 39.6257 268.168 39.4764 268.296C39.3377 268.424 39.119 268.488 38.8204 268.488H36.7084L39.6684 262.056L32.9804 246.792H35.4444C35.6897 246.792 35.8817 246.856 36.0204 246.984C36.1697 247.101 36.271 247.235 36.3244 247.384L40.6604 257.592C40.831 258.04 40.975 258.509 41.0924 259C41.2417 258.499 41.4017 258.024 41.5724 257.576L45.7804 247.384C45.8444 247.213 45.951 247.075 46.1004 246.968C46.2604 246.851 46.4364 246.792 46.6284 246.792H48.8844ZM54.0884 249.144C54.4404 248.749 54.8137 248.392 55.2084 248.072C55.603 247.752 56.019 247.48 56.4564 247.256C56.9044 247.021 57.3737 246.845 57.8644 246.728C58.3657 246.6 58.9044 246.536 59.4804 246.536C60.3657 246.536 61.1444 246.685 61.8164 246.984C62.499 247.272 63.0644 247.688 63.5124 248.232C63.971 248.765 64.3177 249.411 64.5524 250.168C64.787 250.925 64.9044 251.763 64.9044 252.68V263H62.0404V252.68C62.0404 251.453 61.7577 250.504 61.1924 249.832C60.6377 249.149 59.7897 248.808 58.6484 248.808C57.8057 248.808 57.0164 249.011 56.2804 249.416C55.555 249.821 54.883 250.371 54.2644 251.064V263H51.4004V246.792H53.1124C53.5177 246.792 53.7684 246.989 53.8644 247.384L54.0884 249.144ZM78.0281 255.704C76.7161 255.747 75.5961 255.853 74.6681 256.024C73.7508 256.184 72.9988 256.397 72.4121 256.664C71.8361 256.931 71.4148 257.245 71.1481 257.608C70.8921 257.971 70.7641 258.376 70.7641 258.824C70.7641 259.251 70.8335 259.619 70.9721 259.928C71.1108 260.237 71.2975 260.493 71.5321 260.696C71.7775 260.888 72.0601 261.032 72.3801 261.128C72.7108 261.213 73.0628 261.256 73.4361 261.256C73.9375 261.256 74.3961 261.208 74.8121 261.112C75.2281 261.005 75.6175 260.856 75.9801 260.664C76.3535 260.472 76.7055 260.243 77.0361 259.976C77.3775 259.709 77.7081 259.405 78.0281 259.064V255.704ZM68.8281 249.08C69.7241 248.216 70.6895 247.571 71.7241 247.144C72.7588 246.717 73.9055 246.504 75.1641 246.504C76.0708 246.504 76.8761 246.653 77.5801 246.952C78.2841 247.251 78.8761 247.667 79.3561 248.2C79.8361 248.733 80.1988 249.379 80.4441 250.136C80.6895 250.893 80.8121 251.725 80.8121 252.632V263H79.5481C79.2708 263 79.0575 262.957 78.9081 262.872C78.7588 262.776 78.6415 262.595 78.5561 262.328L78.2361 260.792C77.8095 261.187 77.3935 261.539 76.9881 261.848C76.5828 262.147 76.1561 262.403 75.7081 262.616C75.2601 262.819 74.7801 262.973 74.2681 263.08C73.7668 263.197 73.2068 263.256 72.5881 263.256C71.9588 263.256 71.3668 263.171 70.8121 263C70.2575 262.819 69.7721 262.552 69.3561 262.2C68.9508 261.848 68.6255 261.405 68.3801 260.872C68.1455 260.328 68.0281 259.688 68.0281 258.952C68.0281 258.312 68.2041 257.699 68.5561 257.112C68.9081 256.515 69.4788 255.987 70.2681 255.528C71.0575 255.069 72.0868 254.696 73.3561 254.408C74.6255 254.109 76.1828 253.939 78.0281 253.896V252.632C78.0281 251.373 77.7561 250.424 77.2121 249.784C76.6681 249.133 75.8735 248.808 74.8281 248.808C74.1241 248.808 73.5321 248.899 73.0521 249.08C72.5828 249.251 72.1721 249.448 71.8201 249.672C71.4788 249.885 71.1801 250.083 70.9241 250.264C70.6788 250.435 70.4335 250.52 70.1881 250.52C69.9961 250.52 69.8308 250.472 69.6921 250.376C69.5535 250.269 69.4361 250.141 69.3401 249.992L68.8281 249.08ZM85.1504 263V246.792H86.8624C87.2677 246.792 87.5184 246.989 87.6144 247.384L87.8224 249.048C88.4197 248.312 89.0917 247.709 89.8384 247.24C90.585 246.771 91.449 246.536 92.4304 246.536C93.5184 246.536 94.3984 246.84 95.0704 247.448C95.753 248.056 96.2437 248.877 96.5424 249.912C96.777 249.325 97.0757 248.819 97.4384 248.392C97.8117 247.965 98.2277 247.613 98.6864 247.336C99.145 247.059 99.6304 246.856 100.142 246.728C100.665 246.6 101.193 246.536 101.726 246.536C102.58 246.536 103.337 246.675 103.998 246.952C104.67 247.219 105.236 247.613 105.694 248.136C106.164 248.659 106.521 249.304 106.766 250.072C107.012 250.829 107.134 251.699 107.134 252.68V263H104.27V252.68C104.27 251.411 103.993 250.451 103.438 249.8C102.884 249.139 102.084 248.808 101.038 248.808C100.569 248.808 100.121 248.893 99.6944 249.064C99.2784 249.224 98.9104 249.464 98.5904 249.784C98.2704 250.104 98.0144 250.509 97.8224 251C97.641 251.48 97.5504 252.04 97.5504 252.68V263H94.6864V252.68C94.6864 251.379 94.425 250.408 93.9024 249.768C93.3797 249.128 92.617 248.808 91.6144 248.808C90.9104 248.808 90.2597 249 89.6624 249.384C89.065 249.757 88.5157 250.269 88.0144 250.92V263H85.1504ZM114.471 246.792V263H111.623V246.792H114.471ZM115.079 241.704C115.079 241.981 115.02 242.243 114.903 242.488C114.796 242.723 114.647 242.936 114.455 243.128C114.274 243.309 114.055 243.453 113.799 243.56C113.554 243.667 113.292 243.72 113.015 243.72C112.738 243.72 112.476 243.667 112.231 243.56C111.996 243.453 111.788 243.309 111.607 243.128C111.426 242.936 111.282 242.723 111.175 242.488C111.068 242.243 111.015 241.981 111.015 241.704C111.015 241.427 111.068 241.165 111.175 240.92C111.282 240.664 111.426 240.445 111.607 240.264C111.788 240.072 111.996 239.923 112.231 239.816C112.476 239.709 112.738 239.656 113.015 239.656C113.292 239.656 113.554 239.709 113.799 239.816C114.055 239.923 114.274 240.072 114.455 240.264C114.647 240.445 114.796 240.664 114.903 240.92C115.02 241.165 115.079 241.427 115.079 241.704ZM130.43 249.672C130.345 249.789 130.26 249.88 130.174 249.944C130.089 250.008 129.972 250.04 129.822 250.04C129.662 250.04 129.486 249.976 129.294 249.848C129.102 249.709 128.862 249.56 128.574 249.4C128.297 249.24 127.95 249.096 127.534 248.968C127.129 248.829 126.628 248.76 126.03 248.76C125.23 248.76 124.526 248.904 123.918 249.192C123.31 249.469 122.798 249.875 122.382 250.408C121.977 250.941 121.668 251.587 121.454 252.344C121.252 253.101 121.15 253.949 121.15 254.888C121.15 255.869 121.262 256.744 121.486 257.512C121.71 258.269 122.025 258.909 122.43 259.432C122.846 259.944 123.342 260.339 123.918 260.616C124.505 260.883 125.161 261.016 125.886 261.016C126.58 261.016 127.15 260.936 127.598 260.776C128.046 260.605 128.414 260.419 128.702 260.216C129.001 260.013 129.246 259.832 129.438 259.672C129.641 259.501 129.838 259.416 130.03 259.416C130.265 259.416 130.446 259.507 130.574 259.688L131.374 260.728C131.022 261.165 130.622 261.539 130.174 261.848C129.726 262.157 129.241 262.419 128.718 262.632C128.206 262.835 127.668 262.984 127.102 263.08C126.537 263.176 125.961 263.224 125.374 263.224C124.361 263.224 123.417 263.037 122.542 262.664C121.678 262.291 120.926 261.752 120.286 261.048C119.646 260.333 119.145 259.459 118.782 258.424C118.42 257.389 118.238 256.211 118.238 254.888C118.238 253.683 118.404 252.568 118.734 251.544C119.076 250.52 119.566 249.64 120.206 248.904C120.857 248.157 121.652 247.576 122.59 247.16C123.54 246.744 124.628 246.536 125.854 246.536C126.996 246.536 127.998 246.723 128.862 247.096C129.737 247.459 130.51 247.976 131.182 248.648L130.43 249.672ZM143.872 249.464C143.744 249.699 143.546 249.816 143.28 249.816C143.12 249.816 142.938 249.757 142.736 249.64C142.533 249.523 142.282 249.395 141.984 249.256C141.696 249.107 141.349 248.973 140.944 248.856C140.538 248.728 140.058 248.664 139.504 248.664C139.024 248.664 138.592 248.728 138.208 248.856C137.824 248.973 137.493 249.139 137.216 249.352C136.949 249.565 136.741 249.816 136.592 250.104C136.453 250.381 136.384 250.685 136.384 251.016C136.384 251.432 136.501 251.779 136.736 252.056C136.981 252.333 137.301 252.573 137.696 252.776C138.09 252.979 138.538 253.16 139.04 253.32C139.541 253.469 140.053 253.635 140.576 253.816C141.109 253.987 141.626 254.179 142.128 254.392C142.629 254.605 143.077 254.872 143.472 255.192C143.866 255.512 144.181 255.907 144.416 256.376C144.661 256.835 144.784 257.389 144.784 258.04C144.784 258.787 144.65 259.48 144.384 260.12C144.117 260.749 143.722 261.299 143.2 261.768C142.677 262.227 142.037 262.589 141.28 262.856C140.522 263.123 139.648 263.256 138.656 263.256C137.525 263.256 136.501 263.075 135.584 262.712C134.666 262.339 133.888 261.864 133.248 261.288L133.92 260.2C134.005 260.061 134.106 259.955 134.224 259.88C134.341 259.805 134.49 259.768 134.672 259.768C134.864 259.768 135.066 259.843 135.28 259.992C135.493 260.141 135.749 260.307 136.048 260.488C136.357 260.669 136.73 260.835 137.168 260.984C137.605 261.133 138.149 261.208 138.8 261.208C139.354 261.208 139.84 261.139 140.256 261C140.672 260.851 141.018 260.653 141.296 260.408C141.573 260.163 141.776 259.88 141.904 259.56C142.042 259.24 142.112 258.899 142.112 258.536C142.112 258.088 141.989 257.72 141.744 257.432C141.509 257.133 141.194 256.883 140.8 256.68C140.405 256.467 139.952 256.285 139.44 256.136C138.938 255.976 138.421 255.811 137.888 255.64C137.365 255.469 136.848 255.277 136.336 255.064C135.834 254.84 135.386 254.563 134.992 254.232C134.597 253.901 134.277 253.496 134.032 253.016C133.797 252.525 133.68 251.933 133.68 251.24C133.68 250.621 133.808 250.029 134.064 249.464C134.32 248.888 134.693 248.387 135.184 247.96C135.674 247.523 136.277 247.176 136.992 246.92C137.706 246.664 138.522 246.536 139.44 246.536C140.506 246.536 141.461 246.707 142.304 247.048C143.157 247.379 143.893 247.837 144.512 248.424L143.872 249.464ZM153.567 246.28C153.716 245.235 154.004 244.312 154.431 243.512C154.858 242.701 155.396 242.024 156.047 241.48C156.708 240.936 157.46 240.525 158.303 240.248C159.156 239.96 160.074 239.816 161.055 239.816C162.026 239.816 162.922 239.955 163.743 240.232C164.564 240.509 165.268 240.904 165.855 241.416C166.452 241.928 166.916 242.547 167.247 243.272C167.578 243.997 167.743 244.803 167.743 245.688C167.743 246.413 167.647 247.064 167.455 247.64C167.274 248.205 167.007 248.701 166.655 249.128C166.314 249.555 165.898 249.917 165.407 250.216C164.916 250.515 164.367 250.76 163.759 250.952C165.252 251.336 166.372 251.997 167.119 252.936C167.876 253.864 168.255 255.027 168.255 256.424C168.255 257.48 168.052 258.429 167.647 259.272C167.252 260.115 166.708 260.835 166.015 261.432C165.322 262.019 164.511 262.472 163.583 262.792C162.666 263.101 161.679 263.256 160.623 263.256C159.407 263.256 158.367 263.107 157.503 262.808C156.639 262.499 155.908 262.077 155.311 261.544C154.714 261.011 154.223 260.381 153.839 259.656C153.455 258.92 153.13 258.125 152.863 257.272L154.095 256.76C154.415 256.621 154.724 256.584 155.023 256.648C155.332 256.712 155.556 256.888 155.695 257.176C155.834 257.475 156.004 257.832 156.207 258.248C156.42 258.664 156.708 259.064 157.071 259.448C157.434 259.832 157.892 260.157 158.447 260.424C159.012 260.691 159.727 260.824 160.591 260.824C161.391 260.824 162.09 260.696 162.687 260.44C163.295 260.173 163.796 259.832 164.191 259.416C164.596 259 164.9 258.536 165.103 258.024C165.306 257.512 165.407 257.005 165.407 256.504C165.407 255.885 165.327 255.32 165.167 254.808C165.007 254.296 164.708 253.853 164.271 253.48C163.834 253.107 163.231 252.813 162.463 252.6C161.706 252.387 160.73 252.28 159.535 252.28V250.216C160.516 250.205 161.348 250.099 162.031 249.896C162.724 249.693 163.284 249.416 163.711 249.064C164.148 248.712 164.463 248.291 164.655 247.8C164.858 247.309 164.959 246.765 164.959 246.168C164.959 245.507 164.852 244.931 164.639 244.44C164.436 243.949 164.154 243.544 163.791 243.224C163.428 242.904 162.996 242.664 162.495 242.504C162.004 242.344 161.471 242.264 160.895 242.264C160.319 242.264 159.78 242.349 159.279 242.52C158.788 242.691 158.351 242.931 157.967 243.24C157.594 243.539 157.279 243.896 157.023 244.312C156.767 244.728 156.586 245.187 156.479 245.688C156.34 246.061 156.164 246.312 155.951 246.44C155.748 246.557 155.45 246.589 155.055 246.536L153.567 246.28ZM176.577 260.888C177.345 260.888 178.039 260.765 178.657 260.52C179.287 260.275 179.82 259.933 180.257 259.496C180.705 259.059 181.047 258.541 181.281 257.944C181.527 257.347 181.649 256.696 181.649 255.992C181.649 255.245 181.532 254.573 181.297 253.976C181.063 253.368 180.727 252.856 180.289 252.44C179.863 252.013 179.351 251.688 178.753 251.464C178.156 251.24 177.5 251.128 176.785 251.128C176.017 251.128 175.324 251.261 174.705 251.528C174.087 251.784 173.559 252.136 173.121 252.584C172.695 253.021 172.364 253.533 172.129 254.12C171.905 254.696 171.793 255.299 171.793 255.928C171.793 256.664 171.9 257.336 172.113 257.944C172.327 258.552 172.636 259.075 173.041 259.512C173.457 259.949 173.959 260.291 174.545 260.536C175.143 260.771 175.82 260.888 176.577 260.888ZM174.913 248.664C174.711 248.92 174.513 249.171 174.321 249.416C174.14 249.651 173.964 249.885 173.793 250.12C174.337 249.747 174.935 249.459 175.585 249.256C176.236 249.053 176.945 248.952 177.713 248.952C178.641 248.952 179.516 249.107 180.337 249.416C181.159 249.715 181.873 250.157 182.481 250.744C183.1 251.32 183.591 252.035 183.953 252.888C184.316 253.731 184.497 254.696 184.497 255.784C184.497 256.84 184.305 257.821 183.921 258.728C183.537 259.635 182.999 260.424 182.305 261.096C181.623 261.768 180.796 262.296 179.825 262.68C178.865 263.064 177.804 263.256 176.641 263.256C175.489 263.256 174.444 263.075 173.505 262.712C172.567 262.339 171.767 261.816 171.105 261.144C170.455 260.461 169.948 259.64 169.585 258.68C169.233 257.709 169.057 256.627 169.057 255.432C169.057 254.429 169.276 253.363 169.713 252.232C170.161 251.091 170.871 249.875 171.841 248.584L177.665 240.76C177.815 240.568 178.017 240.408 178.273 240.28C178.54 240.141 178.844 240.072 179.185 240.072H181.713L174.913 248.664ZM188.964 248.728C190.159 248.472 191.257 248.344 192.26 248.344C193.455 248.344 194.511 248.52 195.428 248.872C196.345 249.224 197.108 249.709 197.716 250.328C198.335 250.947 198.799 251.677 199.108 252.52C199.428 253.363 199.588 254.28 199.588 255.272C199.588 256.488 199.375 257.587 198.948 258.568C198.532 259.549 197.951 260.392 197.204 261.096C196.468 261.789 195.599 262.323 194.596 262.696C193.593 263.069 192.511 263.256 191.348 263.256C190.676 263.256 190.031 263.187 189.412 263.048C188.793 262.92 188.212 262.744 187.668 262.52C187.135 262.296 186.639 262.04 186.18 261.752C185.721 261.464 185.316 261.16 184.964 260.84L185.844 259.624C186.036 259.347 186.287 259.208 186.596 259.208C186.809 259.208 187.049 259.293 187.316 259.464C187.583 259.624 187.908 259.805 188.292 260.008C188.676 260.211 189.124 260.397 189.636 260.568C190.159 260.728 190.777 260.808 191.492 260.808C192.292 260.808 193.012 260.68 193.652 260.424C194.292 260.168 194.841 259.805 195.3 259.336C195.759 258.856 196.111 258.285 196.356 257.624C196.601 256.963 196.724 256.221 196.724 255.4C196.724 254.685 196.617 254.04 196.404 253.464C196.201 252.888 195.887 252.397 195.46 251.992C195.044 251.587 194.521 251.272 193.892 251.048C193.263 250.824 192.527 250.712 191.684 250.712C191.108 250.712 190.505 250.76 189.876 250.856C189.257 250.952 188.623 251.107 187.972 251.32L186.18 250.792L188.02 240.072H198.884V241.32C198.884 241.725 198.756 242.061 198.5 242.328C198.255 242.584 197.828 242.712 197.22 242.712H190.02L188.964 248.728ZM223.506 258.264C223.677 258.264 223.826 258.333 223.954 258.472L225.186 259.8C224.247 260.888 223.106 261.736 221.762 262.344C220.429 262.952 218.813 263.256 216.914 263.256C215.271 263.256 213.778 262.973 212.434 262.408C211.09 261.832 209.943 261.032 208.994 260.008C208.045 258.973 207.309 257.736 206.786 256.296C206.263 254.856 206.002 253.272 206.002 251.544C206.002 249.816 206.274 248.232 206.818 246.792C207.362 245.352 208.125 244.115 209.106 243.08C210.098 242.045 211.282 241.245 212.658 240.68C214.034 240.104 215.554 239.816 217.218 239.816C218.85 239.816 220.29 240.077 221.538 240.6C222.786 241.123 223.885 241.832 224.834 242.728L223.81 244.152C223.746 244.259 223.661 244.349 223.554 244.424C223.458 244.488 223.325 244.52 223.154 244.52C222.962 244.52 222.727 244.419 222.45 244.216C222.173 244.003 221.81 243.768 221.362 243.512C220.914 243.256 220.354 243.027 219.682 242.824C219.01 242.611 218.183 242.504 217.202 242.504C216.018 242.504 214.935 242.712 213.954 243.128C212.973 243.533 212.125 244.125 211.41 244.904C210.706 245.683 210.157 246.632 209.762 247.752C209.367 248.872 209.17 250.136 209.17 251.544C209.17 252.973 209.373 254.248 209.778 255.368C210.194 256.488 210.754 257.437 211.458 258.216C212.173 258.984 213.01 259.571 213.97 259.976C214.941 260.381 215.986 260.584 217.106 260.584C217.789 260.584 218.402 260.547 218.946 260.472C219.501 260.387 220.007 260.259 220.466 260.088C220.935 259.917 221.367 259.704 221.762 259.448C222.167 259.181 222.567 258.867 222.962 258.504C223.143 258.344 223.325 258.264 223.506 258.264ZM240.209 260.472L240.193 263H226.065V240.072H240.193V242.6H229.169V250.216H238.097V252.648H229.169V260.472H240.209Z" fill="black"/>
<path d="M39.6504 328.76C41.7944 328.76 43.5384 328.488 44.8824 327.944C46.2584 327.4 47.3304 326.696 48.0984 325.832C48.8664 324.968 49.3944 323.992 49.6824 322.904C49.9704 321.816 50.1144 320.712 50.1144 319.592C50.1144 318.312 49.9384 317.16 49.5864 316.136C49.2664 315.112 48.6904 314.248 47.8584 313.544C47.0584 312.84 45.9864 312.296 44.6424 311.912C43.2984 311.528 41.6024 311.336 39.5544 311.336H28.2264V328.76H39.6504ZM28.2264 283.208V300.488H36.6744C38.4664 300.488 40.0824 300.36 41.5224 300.104C42.9624 299.848 44.1784 299.4 45.1704 298.76C46.1944 298.12 46.9624 297.24 47.4744 296.12C48.0184 295 48.2904 293.592 48.2904 291.896C48.2904 290.232 48.0824 288.856 47.6664 287.768C47.2504 286.648 46.6104 285.752 45.7464 285.08C44.8824 284.408 43.7784 283.928 42.4344 283.64C41.1224 283.352 39.5544 283.208 37.7304 283.208H28.2264ZM37.7304 271.064C42.5624 271.064 46.6744 271.512 50.0664 272.408C53.4584 273.304 56.2264 274.568 58.3704 276.2C60.5144 277.832 62.0664 279.816 63.0264 282.152C64.0184 284.488 64.5144 287.096 64.5144 289.976C64.5144 291.544 64.2904 293.064 63.8424 294.536C63.3944 295.976 62.6904 297.336 61.7304 298.616C60.7704 299.864 59.5384 301.016 58.0344 302.072C56.5304 303.128 54.7224 304.04 52.6104 304.808C57.2184 305.928 60.6264 307.736 62.8344 310.232C65.0424 312.728 66.1464 315.96 66.1464 319.928C66.1464 322.904 65.5704 325.672 64.4184 328.232C63.2664 330.792 61.5704 333.032 59.3304 334.952C57.1224 336.84 54.3864 338.328 51.1224 339.416C47.8584 340.472 44.1304 341 39.9384 341H12.0024V271.064H37.7304Z" fill="black"/>
<path d="M112.056 314.264L105.576 295.112C105.096 293.896 104.584 292.472 104.04 290.84C103.496 289.176 102.952 287.384 102.408 285.464C101.928 287.416 101.416 289.224 100.872 290.888C100.328 292.552 99.8161 293.992 99.3361 295.208L92.9041 314.264H112.056ZM137.832 341H125.256C123.848 341 122.712 340.68 121.848 340.04C120.984 339.368 120.328 338.52 119.88 337.496L115.752 325.304H89.1601L85.0321 337.496C84.6801 338.392 84.0401 339.208 83.1121 339.944C82.2161 340.648 81.0961 341 79.7521 341H67.0801L94.1521 271.064H110.76L137.832 341Z" fill="black"/>
<path d="M181.986 285.272C181.506 286.04 180.994 286.616 180.45 287C179.938 287.384 179.266 287.576 178.434 287.576C177.698 287.576 176.898 287.352 176.034 286.904C175.202 286.424 174.242 285.896 173.154 285.32C172.098 284.744 170.882 284.232 169.506 283.784C168.13 283.304 166.562 283.064 164.802 283.064C161.762 283.064 159.49 283.72 157.986 285.032C156.514 286.312 155.778 288.056 155.778 290.264C155.778 291.672 156.226 292.84 157.122 293.768C158.018 294.696 159.186 295.496 160.626 296.168C162.098 296.84 163.762 297.464 165.618 298.04C167.506 298.584 169.426 299.208 171.378 299.912C173.33 300.584 175.234 301.384 177.09 302.312C178.978 303.24 180.642 304.424 182.082 305.864C183.554 307.304 184.738 309.064 185.634 311.144C186.53 313.192 186.978 315.672 186.978 318.584C186.978 321.816 186.418 324.84 185.298 327.656C184.178 330.472 182.546 332.936 180.402 335.048C178.29 337.128 175.666 338.776 172.53 339.992C169.426 341.176 165.89 341.768 161.922 341.768C159.746 341.768 157.522 341.544 155.25 341.096C153.01 340.648 150.834 340.024 148.722 339.224C146.61 338.392 144.626 337.416 142.77 336.296C140.914 335.176 139.298 333.928 137.922 332.552L142.722 324.968C143.106 324.424 143.602 323.976 144.21 323.624C144.85 323.24 145.538 323.048 146.274 323.048C147.234 323.048 148.194 323.352 149.154 323.96C150.146 324.568 151.25 325.24 152.466 325.976C153.714 326.712 155.138 327.384 156.738 327.992C158.338 328.6 160.226 328.904 162.402 328.904C165.346 328.904 167.634 328.264 169.266 326.984C170.898 325.672 171.714 323.608 171.714 320.792C171.714 319.16 171.266 317.832 170.37 316.808C169.474 315.784 168.29 314.936 166.818 314.264C165.378 313.592 163.73 313 161.874 312.488C160.018 311.976 158.114 311.416 156.162 310.808C154.21 310.168 152.306 309.4 150.45 308.504C148.594 307.576 146.93 306.376 145.458 304.904C144.018 303.4 142.85 301.544 141.954 299.336C141.058 297.096 140.61 294.344 140.61 291.08C140.61 288.456 141.138 285.896 142.194 283.4C143.25 280.904 144.802 278.68 146.85 276.728C148.898 274.776 151.41 273.224 154.386 272.072C157.362 270.888 160.77 270.296 164.61 270.296C166.754 270.296 168.834 270.472 170.85 270.824C172.898 271.144 174.834 271.64 176.658 272.312C178.482 272.952 180.178 273.736 181.746 274.664C183.346 275.56 184.77 276.584 186.018 277.736L181.986 285.272Z" fill="black"/>
<path d="M212.822 283.544V299.864H234.806V311.864H212.822V328.52H241.526V341H196.502V271.064H241.526V283.544H212.822Z" fill="black"/>
<defs>
<linearGradient id="paint0_linear_401_6" x1="98.9862" y1="22.6617" x2="151.316" y2="217.961" gradientUnits="userSpaceOnUse">
<stop stop-color="#00F1A0"/>
<stop offset="1" stop-color="#00B1EC"/>
</linearGradient>
</defs>
</svg>
